<?xml version="1.0" standalone="no"?>
<!DOCTYPE svg PUBLIC "-//W3C//DTD SVG 20010904//EN"
 "http://www.w3.org/TR/2001/REC-SVG-20010904/DTD/svg10.dtd">
<svg version="1.0" xmlns="http://www.w3.org/2000/svg"
 width="1280.000000pt" height="1280.000000pt" viewBox="0 0 1280.000000 1280.000000"
 preserveAspectRatio="xMidYMid meet">
<metadata>
Created by potrace 1.11, written by Peter Selinger 2001-2013
</metadata>
<g transform="translate(0.000000,1280.000000) scale(0.100000,-0.100000)"
fill="#000000" stroke="none">
<path d="M5573 12791 c-53 -13 -118 -58 -146 -100 -21 -31 -55 -156 -157 -563
-72 -288 -134 -533 -139 -544 -6 -14 -22 -24 -48 -28 -69 -13 -345 -97 -494
-151 -280 -102 -577 -239 -825 -381 -61 -35 -116 -64 -122 -64 -6 0 -217 124
-469 276 -251 152 -475 283 -496 290 -59 21 -125 17 -182 -10 -71 -34 -1184
-1149 -1214 -1216 -24 -53 -27 -121 -7 -176 7 -22 138 -245 290 -497 152 -252
276 -463 276 -469 0 -6 -29 -61 -64 -122 -205 -358 -372 -755 -491 -1167 -31
-107 -58 -195 -60 -197 -2 -2 -245 -65 -541 -138 -599 -150 -596 -149 -649
-246 l-30 -53 0 -835 0 -835 31 -55 c53 -94 57 -96 654 -245 292 -73 533 -135
535 -137 3 -3 29 -91 60 -196 117 -409 275 -784 486 -1158 38 -67 69 -127 69
-133 0 -5 -124 -216 -276 -468 -152 -252 -283 -475 -290 -497 -21 -58 -17
-124 10 -181 34 -71 1149 -1184 1216 -1214 53 -24 121 -27 177 -7 21 7 245
138 496 290 252 152 463 276 469 276 5 0 70 -34 144 -76 376 -212 850 -406
1219 -499 61 -16 114 -31 118 -36 5 -4 69 -246 142 -539 149 -597 151 -601
245 -654 l55 -31 835 0 c835 0 835 0 875 21 52 28 89 63 111 105 9 19 77 272
150 562 72 291 134 530 136 532 3 3 91 29 196 60 407 116 786 275 1158 486 67
38 127 69 133 69 6 0 217 -124 468 -276 252 -152 475 -283 497 -290 54 -20
123 -17 176 7 67 30 1182 1143 1216 1214 27 57 31 123 10 181 -7 22 -138 245
-290 497 -152 252 -276 463 -276 469 0 6 29 61 64 122 205 358 374 760 492
1170 30 104 56 191 59 194 2 2 243 64 535 137 597 149 601 151 654 245 l31 55
0 835 0 835 -30 53 c-53 97 -50 96 -649 246 -296 73 -539 136 -541 138 -3 3
-29 90 -59 194 -118 410 -287 812 -492 1170 -35 61 -64 116 -64 122 0 7 124
218 276 469 152 252 283 475 290 497 21 58 17 124 -10 181 -34 71 -1149 1184
-1216 1214 -53 24 -121 27 -176 7 -22 -7 -245 -138 -497 -290 -252 -152 -463
-276 -469 -276 -6 0 -61 29 -122 64 -360 207 -758 374 -1168 491 -105 31 -193
57 -196 60 -2 2 -64 243 -137 535 -149 597 -151 601 -245 654 l-55 31 -815 2
c-448 1 -829 -2 -847 -6z m2832 -3217 c209 -131 456 -327 641 -511 119 -117
249 -261 243 -267 -2 -3 -267 -75 -589 -161 -322 -86 -976 -262 -1455 -390
-478 -128 -1084 -290 -1345 -360 -281 -75 -502 -139 -540 -158 -88 -41 -196
-149 -237 -237 -44 -94 -56 -158 -50 -264 8 -144 64 -266 169 -367 95 -91 255
-147 388 -135 35 3 318 73 628 156 622 167 673 178 847 187 433 21 878 -149
1180 -452 285 -284 437 -609 476 -1010 20 -202 -12 -440 -88 -659 -153 -441
-519 -811 -958 -965 -90 -32 -3393 -921 -3421 -921 -31 0 -301 197 -468 340
-199 170 -503 495 -474 505 7 2 654 176 1438 385 2444 654 2539 680 2583 697
148 58 272 197 312 348 19 76 19 204 0 280 -51 195 -223 351 -427 385 -89 15
-155 7 -343 -44 -1103 -299 -1065 -290 -1310 -290 -142 0 -212 4 -277 17 -364
73 -635 220 -881 477 -613 639 -583 1641 66 2256 165 156 367 279 568 345 86
28 3200 866 3225 868 6 1 51 -24 99 -55z"/>
</g>
</svg>
